**ABCDEFGHIJKLMNOPQRSTUVWXYZabcdefghijklmnopqrstuvwxyz**************************
**PARASOLID !"#$%&'()*+,-./:;<=>?@[\]^_`{|}~0123456789**************************
**PART1;
MC=AMD64;
MC_MODEL=Intel64 Family 6 Model 61 Stepping 4, GenuineIntel;
MC_ID=unknown;
OS=Windows_NT;
OS_RELEASE=unknown;
FRU=Parasolid Version 28.0, build 204, 11- 9-2015;
APPL=SOLIDWORKS 2016-2016040;
SITE=;
USER=unknown;
FORMAT=text;
GUISE=transmit;
KEY=makeProjectedPlanarWire;
FILE=makeProjectedPlanarWire.x_t;
DATE=Mon Mar 30 11:07:11 2020;
**PART2;
SCH=SCH_2800204_28002;
USFLD_SIZE=0;
**PART3;
**END_OF_HEADER*****************************************************************
T51 : TRANSMIT FILE created by modeller version 280020423 SCH_2800204_28002_1300
6200 0 12 30 CCCCCCCCCCCCCDI5 owner1040 0 CCCCCCCCCA13 boundary_mesh1006 0 A16 i
ndex_map_offset0 0 1 dA9 index_map82 0 A17 node_id_index_map82 0 A20 schema_embe
dding_map82 0 A5 child12 0 A14 lowest_node_id0 0 1 dZ1 94 0 2 0 0 0 0 1e3 1e-8 0
 3 0 1 0 3 1 4 5 6 7 8 9 10 0 0 0 0 0 0 0 70 11 CI9 list_type0 0 1 uI10 notransm
it0 0 1 lCCCDCCDI12 finger_index0 0 1 dI12 finger_block1012 0 CZ2 0 4 T1 0 0 2 2
0 1 11 11 13 255 4 84 0 1 0 12 0 0 8 12 50 255 5 2 0 12 0 0 0 +0 .02 0 1 0 0 0 0
 -1 30 255 6 39 0 9 13 0 0 +0 .0175 -.01875 0 -1 0 29 255 7 75 0 10 14 0 0 .0125
 -.01875 19 8 CCCCCCCA5 owner12 0 Z8 83 0 1 0 0 4 V0 16 255 9 38 0 ?15 0 16 6 0
 0 1 18 255 10 73 0 17 0 18 7 ?1 17 255 17 0 0 0 0 10 19 20 0 15 -18 18 70 0 21
 10 22 14 ?1 17 21 0 23 15 24 18 25 16 0 26 +18 22 67 0 24 18 27 28 ?1 29 14 72
 0 18 28 7 0 .0175 -.01875 29 28 69 0 22 29 14 0 .0175 -.02525 29 29 66 0 27 30
 28 0 .0125 -.02525 18 27 64 0 19 22 31 29 ?1 29 30 63 0 31 32 29 0 .06 0 18 31
 61 0 33 27 34 30 ?1 29 32 60 0 34 35 30 0 0 0 18 34 58 0 36 31 37 32 ?1 29 35 5
7 0 37 38 32 0 0 -.03 18 37 55 0 39 34 40 35 ?1 29 38 54 0 40 41 35 0 .06 -.03 1
8 40 52 0 42 37 43 38 ?1 29 41 51 0 43 44 38 0 .02 -.028 18 43 49 0 45 40 46 41
 ?1 29 44 48 0 46 47 41 0 .02 -.016 18 46 46 0 48 43 49 44 ?1 29 47 45 0 49 50 4
4 0 .0525 -.016 18 49 43 0 51 46 52 47 ?1 29 50 42 0 52 0 47 0 .0525 -.028 18 52
 40 0 53 49 0 50 ?1 17 53 0 54 51 55 52 45 56 0 57 -15 255 54 13 0 53 12 58 17 5
1 0 54 48 53 49 57 59 0 60 +17 55 0 54 53 48 43 61 62 0 0 -17 45 0 0 0 0 43 53 5
6 0 55 +16 56 16 0 ?45 59 0 63 0 0 1 17 57 0 0 0 0 52 51 59 0 0 -16 59 18 0 ?51
 64 56 65 0 0 1 16 64 20 0 ?48 62 59 66 0 0 1 30 65 19 0 59 63 66 0 +-1704107305
998125e-32 .0525 -.035 495635278850516e-30 0 1 30 63 17 0 56 0 65 0 +0 .055 -.02
8 0 -1 0 30 66 21 0 64 65 67 0 +0 .055 -.016 0 -1 0 30 67 23 0 62 66 68 0 +0 .02
 0 0 0 1 16 62 22 0 ?61 69 64 67 0 0 1 30 68 25 0 69 67 70 0 +0 .06 0 0 0 1 16 6
9 24 0 ?33 71 62 68 0 0 1 30 70 27 0 71 68 72 0 +0 .02 -.03 0 -1 0 16 71 26 0 ?3
9 73 69 70 0 0 1 30 72 29 0 73 70 74 0 +0 0 0 0 0 1 16 73 28 0 ?36 75 71 72 0 0
 1 30 74 31 0 75 72 76 0 +0 .02 0 0 -1 0 16 75 30 0 ?77 20 73 74 0 0 1 30 76 33
 0 20 74 78 0 +0 .0125 -.01875 0 0 -1 16 20 32 0 ?19 79 75 76 0 0 1 30 78 35 0 7
9 76 13 0 +0 .0175 -.02525 0 1 0 16 79 34 0 ?24 16 20 78 0 0 1 30 13 37 0 16 78
 6 0 +0 .0175 -.01875 0 -533761069531325e-30 1 16 16 36 0 ?21 9 79 13 0 0 1 17 2
4 0 23 21 19 22 80 79 0 25 +15 23 15 0 19 12 0 17 19 0 23 24 15 27 17 20 0 80 +1
7 80 0 0 0 0 27 24 79 0 0 -17 25 0 0 0 0 22 21 16 0 0 -17 15 0 23 19 21 10 26 9
 0 0 +17 26 0 0 0 0 18 15 9 0 0 -14 255 12 1 81 ?0 0 54 4 5 -0 0 0 0 4 81 255 1
 81 94 82 12 83 0 0 0 84 80 255 1 82 85 86 9000 1 1 1 1 1 1 1 1 0 FFFFTFTFFFFFFF
1 81 1 83 4 87 12 0 81 0 0 88 82 255 1 84 115671438 80 1 87 0 89 8001 0 0 0 0 3
 5 0 0 0 FFFFTFTFFFFFFF2 83 255 3 88 .792156862745098 .819607843137255 .93333333
3333333 79 255 15 89 SDL/TYSA_COLOUR79 14 86 SWEntUnchanged17 77 0 0 0 0 34 90 7
5 0 0 +17 90 0 58 42 36 31 77 75 0 0 -15 58 14 0 42 12 23 17 42 0 58 39 90 40 33
 69 0 91 -17 36 0 58 90 39 34 92 73 0 77 +17 39 0 58 36 42 37 91 71 0 92 +17 92
 0 0 0 0 37 36 73 0 0 -17 91 0 0 0 0 40 39 71 0 0 -17 33 0 0 0 0 31 42 69 0 90 +
17 61 0 0 0 0 46 55 62 0 0 +17 48 0 54 55 51 46 60 64 0 61 +17 60 0 0 0 0 49 48
 64 0 0 -74 4 CI16 index_map_offset0 0 1 dCCZ20 11 2 0 0 83 81 0 0 0 0 0 0 0 0 0
 0 0 0 0 0 0 0 0 0 1 0 
